<?xml version="1.0" encoding="utf-8"?>

<!-- Uploaded to: SVG Repo, www.svgrepo.com, Generator: SVG Repo Mixer Tools -->
<svg version="1.1" id="Icons" xmlns="http://www.w3.org/2000/svg" xmlns:xlink="http://www.w3.org/1999/xlink" 
	 viewBox="0 0 32 32" xml:space="preserve">
<style type="text/css">
	.st0{fill:none;stroke:#000000;stroke-width:2;stroke-linecap:round;stroke-linejoin:round;stroke-miterlimit:10;}
</style>
<g>
	<path d="M16,9c1.7,0,3-1.3,3-3s-1.3-3-3-3s-3,1.3-3,3S14.3,9,16,9z"/>
	<path d="M29.7,11.3l-7-6.5c-0.3-0.3-0.7-0.3-1.1-0.2c-0.4,0.2-0.6,0.6-0.6,1c0,0.1,0,0.3,0,0.4c0,2.8-2.2,5-5,5s-5-2.2-5-5
		c0-0.1,0-0.3,0-0.4c0-0.4-0.2-0.8-0.6-1c-0.4-0.2-0.8-0.1-1.1,0.2l-7,6.5c-0.3,0.2-0.4,0.6-0.3,1s0.3,0.6,0.7,0.7l8.9,2.8
		C10.1,16.3,9,17.2,9,18.5c0,0.5,0.2,1.3,1.1,2c0.4,0.3,1.1,0.2,1.4-0.2c0.3-0.4,0.2-1.1-0.2-1.4c-0.3-0.2-0.3-0.4-0.3-0.4
		c0-0.3,1.4-1.3,4-1.5v3c-2.3,0.3-4,1.4-4,2.9c0,1,0.7,1.8,1.8,2.4c0.1,0.1,0.3,0.1,0.4,0.1c0.4,0,0.7-0.2,0.9-0.6
		c0.2-0.5,0-1.1-0.5-1.3C13.2,23.3,13,23.1,13,23c0-0.2,0.7-0.7,2-0.9V27c0,0.6,0.4,1,1,1s1-0.4,1-1v-0.8c0.6,0.2,1,0.6,1,0.8
		c0,0.4-0.8,1-2,1s-2-0.6-2-1c0-0.6-0.4-1-1-1s-1,0.4-1,1c0,1.7,1.8,3,4,3s4-1.3,4-3c0-1.4-1.3-2.6-3-2.9V22c3.1-0.2,6-1.4,6-3.5
		c0-1.3-1.1-2.2-2.6-2.8l8.9-2.8c0.3-0.1,0.6-0.4,0.7-0.7S29.9,11.5,29.7,11.3z M21,18.5c0,0.3-1.4,1.3-4,1.5V17
		C19.6,17.2,21,18.2,21,18.5z"/>
</g>
</svg>