<?xml version="1.0" encoding="utf-8"?>

<!-- Uploaded to: SVG Repo, www.svgrepo.com, Generator: SVG Repo Mixer Tools -->
<svg fill="#2f3740" xmlns="http://www.w3.org/2000/svg" 
	 width="60px" height="60px" viewBox="0 0 52 52" enable-background="new 0 0 52 52" xml:space="preserve">
<g>
	<path d="M44.3,6.5c-9,0-15.9,7-15.9,16V44c0,0.8,0.7,1.5,1.5,1.5h17c0.8,0,1.5-0.7,1.5-1.5V27
		c0-0.8-0.7-1.5-1.5-1.5H34.4v-3c0-5,4.9-10,9.9-10h2.6c0.8,0,1.5-0.7,1.5-1.5V8c0-0.8-0.7-1.5-1.5-1.5H44.3z"/>
	<path d="M19.5,6.5c-9,0-15.9,7-15.9,16V44c0,0.8,0.7,1.5,1.5,1.5h17c0.8,0,1.5-0.7,1.5-1.5V27
		c0-0.8-0.7-1.5-1.5-1.5H9.6v-3c0-5,4.9-10,9.9-10h2.6c0.8,0,1.5-0.7,1.5-1.5V8c0-0.8-0.7-1.5-1.5-1.5H19.5z"/>
</g>
<path d="M30.5,8"/>
</svg>