<svg xmlns="http://www.w3.org/2000/svg" viewBox="0 0 1440 320">
  <path fill="#ededed" fill-opacity="6" d="M0,32L30,32C60,32,120,32,180,69.3C240,107,300,181,360,181.3C420,181,480,107,540,96C600,85,660,139,720,154.7C780,171,840,149,900,122.7C960,96,1020,64,1080,53.3C1140,43,1200,53,1260,58.7C1320,64,1380,64,1410,64L1440,64L1440,320L1410,320C1380,320,1320,320,1260,320C1200,320,1140,320,1080,320C1020,320,960,320,900,320C840,320,780,320,720,320C660,320,600,320,540,320C480,320,420,320,360,320C300,320,240,320,180,320C120,320,60,320,30,320L0,320Z"></path>
</svg>